<?xml version="1.0" ?>
<!DOCTYPE svg  PUBLIC '-//W3C//DTD SVG 1.1//EN'  'http://www.w3.org/Graphics/SVG/1.1/DTD/svg11.dtd'>
<!-- Uploaded to: SVG Repo, www.svgrepo.com, Generator: SVG Repo Mixer Tools -->
<svg width="800px" height="800px" viewBox="0 0 67733.32 67733.32" style="shape-rendering:geometricPrecision; text-rendering:geometricPrecision; image-rendering:optimizeQuality; fill-rule:evenodd; clip-rule:evenodd" version="1.1" xml:space="preserve" xmlns="http://www.w3.org/2000/svg" xmlns:xlink="http://www.w3.org/1999/xlink" xmlns:xodm="http://www.corel.com/coreldraw/odm/2003">
<defs>
<style type="text/css">
   <![CDATA[
    .fil0 {fill:none}
    .fil3 {fill:#CC7587;fill-rule:nonzero}
    .fil6 {fill:#DB9A3D;fill-rule:nonzero}
    .fil1 {fill:#DDCAC6;fill-rule:nonzero}
    .fil4 {fill:#DF8C9A;fill-rule:nonzero}
    .fil5 {fill:#FFC15B;fill-rule:nonzero}
    .fil2 {fill:white;fill-rule:nonzero}
   ]]>
  </style>
</defs>
<g id="Layer_x0020_1">
<rect class="fil0" height="67733.32" width="67733.32" x="-0" y="-0"/>
<g id="_2730829481600">
<path class="fil1" d="M13037.43 35155.89l-271.99 1837.86c-257.69,1741.5 597.46,3459.06 2142.66,4302.85l1630.51 890.46 410.15 1811.87c46.13,203.78 106.76,401.7 180.71,592.38 -1089.9,1467.34 -2275.62,2845.9 -3546.77,4122.03 -1222.86,1227.73 -1566.74,3080.21 -865.66,4664.92 674.88,1525.82 2185.1,2501.92 3841.39,2501.92 64.1,0 128.2,-1.3 192.62,-4.33l6139.42 -280.22 2360.28 3926.6c730,1214.52 2023.23,1979.27 3439.26,2033.95 54.24,2.05 108.38,3.03 162.3,3.03 1356.25,0 2633.47,-655.5 3423.44,-1766.19 461.47,-648.89 901.5,-1335.14 1319.01,-2057.55 417.62,722.41 857.54,1408.66 1319.12,2057.55 789.86,1110.58 2067.29,1766.19 3423.44,1766.19 54.03,0 107.95,-0.98 162.2,-3.03 1416.13,-54.68 2709.26,-819.43 3439.35,-2033.95l2360.19 -3926.6 6139.41 280.22c64.32,3.03 128.63,4.33 192.62,4.33 1656.5,0 3166.51,-975.99 3841.5,-2501.92 700.97,-1584.6 357.2,-3437.19 -865.77,-4664.92 -1271.15,-1276.24 -2456.87,-2654.8 -3546.77,-4122.14 73.95,-190.68 134.48,-388.39 180.71,-592.16l410.15 -1811.98 1630.62 -890.46c1545.09,-843.79 2400.35,-2561.35 2142.55,-4302.96l-271.99 -1837.75 1198.82 -1419.27c1135.92,-1345.11 1312.95,-3255.62 443.5,-4786.41l-917.52 -1615.36 605.04 -1756.55c573.42,-1664.51 48.29,-3509.95 -1315.44,-4623.24l-1439.19 -1175.11 -70.38 -1856.59c-66.59,-1759.25 -1222.86,-3290.37 -2896.68,-3835.76l-1766.4 -575.69 -736.28 -1705.77c-666.97,-1545.52 -2187.8,-2536.67 -3856.43,-2536.78 -76.55,-0.11 -153.21,2.06 -230.41,6.28l-1855.08 101.35 -1302.66 -1324.64c-807.19,-820.83 -1893.29,-1255.67 -2996.83,-1255.67 -584.04,0 -1172.84,121.7 -1728.18,372.47l-1693.1 764.42 -1693.32 -764.53c-555.23,-250.66 -1144.14,-372.36 -1728.07,-372.36 -1103.65,-0.11 -2189.54,434.73 -2996.84,1255.67l-1302.76 1324.53 -1854.97 -101.24c-77.09,-4.22 -153.86,-6.28 -230.41,-6.28 -1668.74,-0.11 -3189.35,991.15 -3856.44,2536.67l-736.27 1705.88 -1766.4 575.69c-1673.82,545.39 -2830.09,2076.51 -2896.79,3835.76l-70.38 1856.59 -1439.19 1175.11c-1363.73,1113.29 -1888.75,2958.73 -1315.33,4623.24l605.04 1756.55 -917.52 1615.36c-869.56,1530.79 -692.53,3441.3 443.5,4786.3l1198.71 1419.38z"/>
<g>
<path class="fil2" d="M46686.62 42448.76l829.17 -3662.52 3295.68 -1799.85 -549.82 -3714.71 2423.09 -2868.85 -1854.65 -3265.26 1223.08 -3550.34 -2908.92 -2374.8 -142.17 -3752.6 -3570.37 -1163.52 -1488.02 -3447.81 -3749.57 204.75 -2633.04 -2677.42 -3422.46 1545.41 -3422.47 -1545.41 -2633.04 2677.42 -3749.56 -204.75 -1488.14 3447.81 -3570.37 1163.52 -142.06 3752.6 -2908.92 2374.8 1222.97 3550.34 -1854.53 3265.26 2422.98 2868.85 -549.82 3714.71 3295.78 1799.85 829.17 3662.52 1959.57 256.72c-1506.11,2544.57 -3604.37,5496.91 -6446.92,8350.5l8641.76 -394.45 3650.71 6073.48c2105.09,-2959.38 3436.98,-6538.63 4276.98,-9750.07l465.91 324.94 465.9 -324.94c840,3211.44 2171.79,6790.69 4276.98,9750.07l3650.6 -6073.48 8641.77 394.45c-2842.55,-2853.59 -4940.71,-5805.93 -6446.92,-8350.5l1959.67 -256.72z"/>
<path class="fil2" d="M37561.08 10375.84l2633.04 2677.42 3749.57 -204.75 1488.02 3447.81 3570.37 1163.52 142.17 3752.6 2908.92 2374.8 -1223.08 3550.34 1854.65 3265.26 -2423.09 2868.85 549.82 3714.71 -3295.68 1799.85 -829.28 3662.41 -1959.56 256.83c1506.21,2544.57 3604.48,5496.91 6446.92,8350.5l-8641.77 -394.45 -3650.6 6073.48c-2105.19,-2959.48 -3436.98,-6538.63 -4276.98,-9750.07l-465.9 324.94 -465.91 -324.94c-840,3211.44 -2171.89,6790.59 -4276.98,9750.07l-3650.71 -6073.48 -8641.65 394.45c2842.44,-2853.59 4940.59,-5805.93 6446.81,-8350.5l-1959.57 -256.83 -829.17 -3662.41 -3295.78 -1799.85 549.82 -3714.71 -2422.98 -2868.85 1854.64 -3265.26 -1223.08 -3550.34 2908.92 -2374.8 142.06 -3752.6 3570.37 -1163.52 1488.14 -3447.81 3749.56 204.75 2633.04 -2677.42 3422.47 1545.41 3422.46 -1545.41zm-6843.85 -4201.73l0 0c-1103.65,-0.11 -2189.54,434.73 -2996.84,1255.67l-1302.66 1324.53 -1855.07 -101.24c-76.99,-4.22 -153.86,-6.28 -230.41,-6.28 -1668.63,0 -3189.35,991.15 -3856.44,2536.67l-736.27 1705.87 -1766.29 575.7c-1673.93,545.38 -2830.2,2076.61 -2896.79,3835.87l-70.38 1856.59 -1439.2 1175c-1363.72,1113.29 -1888.85,2958.73 -1315.43,4623.24l605.15 1756.55 -917.52 1615.35c-869.56,1530.8 -692.53,3441.42 443.38,4786.31l1198.83 1419.37 -271.99 1837.97c-257.8,1741.5 597.46,3459.07 2142.55,4302.75l1630.62 890.45 410.15 1811.99c46.12,203.66 106.76,401.59 180.71,592.26 -1089.9,1467.35 -2275.62,2846.01 -3546.77,4122.04 -1222.97,1227.73 -1566.74,3080.21 -865.77,4665.03 674.99,1525.71 2185.21,2501.91 3841.49,2501.91 64.1,0 128.2,-1.4 192.63,-4.44l6139.41 -280.21 2360.18 3926.6c730.1,1214.52 2023.23,1979.26 3439.36,2033.94 54.14,2.06 108.28,3.14 162.31,3.14 1356.14,0 2633.36,-655.6 3423.44,-1766.29 461.47,-648.89 901.39,-1335.14 1319.01,-2057.55 417.61,722.41 857.54,1408.66 1319,2057.55 789.98,1110.58 2067.3,1766.29 3423.45,1766.29 54.03,0 108.06,-1.08 162.3,-3.14 1416.02,-54.68 2709.26,-819.42 3439.36,-2033.94l2360.07 -3926.6 6139.42 280.21c64.42,3.04 128.74,4.44 192.62,4.44 1656.5,0 3166.51,-976.1 3841.49,-2501.91 700.98,-1584.71 357.31,-3437.3 -865.66,-4665.03 -1271.15,-1276.13 -2456.98,-2654.8 -3546.87,-4122.15 73.95,-190.67 134.58,-388.38 180.71,-592.15l410.25 -1811.99 1630.63 -890.45c1545.08,-843.79 2400.35,-2561.36 2142.54,-4302.85l-272.09 -1837.87 1198.82 -1419.27c1136.02,-1344.99 1312.95,-3255.61 443.5,-4786.41l-917.53 -1615.35 605.04 -1756.55c573.43,-1664.51 48.4,-3509.95 -1315.32,-4623.24l-1439.19 -1175 -70.38 -1856.59c-66.7,-1759.26 -1222.86,-3290.49 -2896.8,-3835.87l-1766.4 -575.7 -736.16 -1705.76c-666.97,-1545.41 -2187.81,-2536.67 -3856.54,-2536.78 -76.55,0 -153.21,2.06 -230.3,6.28l-1855.08 101.35 -1302.66 -1324.64c-807.3,-820.84 -1893.41,-1255.67 -2996.95,-1255.67 -584.03,0 -1172.83,121.7 -1728.07,372.47l-1693.2 764.53 -1693.32 -764.64c-555.12,-250.66 -1144.14,-372.36 -1728.07,-372.36z"/>
</g>
<g>
<path class="fil3" d="M41461.26 35724.22c0,0 2407.93,7998.72 9712.61,15331.76l-8641.77 -394.56 -3650.6 6073.59c-5196.01,-7304.35 -5682.93,-18386.85 -5682.93,-18386.85l8262.69 -2623.94z"/>
<path class="fil3" d="M26815.87 35724.22c0,0 -2407.82,7998.72 -9712.6,15331.76l8641.76 -394.56 3650.71 6073.59c5195.91,-7304.35 5682.93,-18386.85 5682.93,-18386.85l-8262.8 -2623.94z"/>
<g>
<polygon class="fil4" points="34138.62,11921.35 37561.08,10375.84 40194.12,13053.26 43943.69,12848.51 45431.82,16296.32 49002.08,17459.95 49144.25,21212.44 52053.17,23587.13 50830.09,27137.58 52684.74,30402.84 50261.76,33271.69 50811.47,36986.39 47515.79,38786.24 46686.62,42448.76 42963.26,42936.54 40866.94,46052.15 37218.83,45161.91 34138.62,47309.88 31058.42,45161.91 27410.3,46052.15 25313.99,42936.54 21590.62,42448.76 20761.45,38786.24 17465.67,36986.39 18015.49,33271.69 15592.51,30402.84 17447.15,27137.58 16224.07,23587.13 19132.99,21212.44 19275.05,17459.95 22845.42,16296.32 24333.56,12848.51 28083.12,13053.26 30716.16,10375.84 "/>
<path class="fil5" d="M47489.81 28842.92c0,7373.64 -5977.55,13351.18 -13351.19,13351.18 -7373.76,0 -13351.19,-5977.54 -13351.19,-13351.18 0,-7373.76 5977.43,-13351.3 13351.19,-13351.3 7373.64,0 13351.19,5977.54 13351.19,13351.3z"/>
<path class="fil6" d="M34138.51 40865.13c-6628.93,0 -12022.01,-5393.08 -12022.01,-12022.33 0,-6628.93 5393.08,-12022.01 12022.01,-12022.01 6629.25,0 12022.33,5393.08 12022.33,12022.01 0,6629.25 -5393.08,12022.33 -12022.33,12022.33zm0 -23757.95l0 0c-6471.17,0 -11735.51,5264.45 -11735.51,11735.62 0,6471.06 5264.34,11735.83 11735.51,11735.83 6471.06,0 11735.94,-5264.77 11735.94,-11735.83 0,-6471.17 -5264.88,-11735.62 -11735.94,-11735.62z"/>
<polygon class="fil3" points="19324.1,22848.8 18942.11,22848.8 18942.11,21212.33 19324.1,21212.33 "/>
<polygon class="fil3" points="22570.51,17693.28 22208.66,17570.18 22664.5,16234.82 23026.35,16357.82 "/>
<polygon class="fil3" points="27453.61,13986.16 27177.62,13722.08 27944.96,12921.28 28220.96,13185.36 "/>
<polygon class="fil3" points="33326.78,12522.07 33161.98,12177.43 34056.11,11748.87 34220.91,12093.51 "/>
<polygon class="fil3" points="39341.34,13308.79 39312.98,12927.56 40179.94,12862.7 40208.19,13243.94 "/>
<polygon class="fil3" points="45380.5,16480.17 44509.53,16238.18 44611.74,15870.36 45482.71,16112.47 "/>
<polygon class="fil3" points="49028.29,21364.14 48375.5,20864.99 48607.53,20561.38 49260.32,21060.53 "/>
<polygon class="fil3" points="17681.67,28284 17268.82,27206.01 17625.37,27069.48 18038.33,28147.46 "/>
<polygon class="fil3" points="18563.9,34211.62 17870.07,33395.45 18161.01,33147.83 18854.84,33963.89 "/>
<polygon class="fil3" points="21615.96,39461.12 20671.04,38954.5 20851.65,38618.09 21796.45,39124.6 "/>
<polygon class="fil3" points="26426.73,43267.75 25290.49,43126.02 25337.48,42747.05 26473.72,42888.79 "/>
<polygon class="fil3" points="31116.67,45344.03 31000.27,44979.9 31936.64,44679.98 32052.92,45044.11 "/>
<polygon class="fil3" points="37328.62,45318.26 37109.25,45005.67 38036.52,44353.97 38255.89,44666.56 "/>
<polygon class="fil3" points="43126.43,43035.72 42800.41,42837.25 43297.61,42020.75 43623.63,42219.21 "/>
<polygon class="fil3" points="47704.08,38816.56 47327.28,38756.14 47482.12,37794.44 47858.81,37854.86 "/>
<polygon class="fil3" points="50072.71,33297.35 49944.4,32354.39 50322.61,32302.96 50451.02,33245.92 "/>
<polygon class="fil3" points="50666.92,27236.98 50104.11,26312.96 50430.12,26114.49 50992.94,27038.51 "/>
</g>
<g>
<g>
<path class="fil2" d="M35934.14 32684.62c244.49,0 485.29,7.69 722.31,22.96 236.79,15.48 454.54,36.27 653.44,63.02 198.46,27.06 366.94,51.64 504.56,74.6 0,114.66 -4.01,311.61 -11.48,590.31 -7.79,279.35 -21.11,581.01 -40.06,905.62 -19.27,325.04 -42.34,630.81 -68.97,917.19 -26.75,286.83 -51.65,502.73 -74.6,647.81 -206.27,0 -550.26,5.63 -1031.87,17.11 -481.28,11.48 -1027.74,24.91 -1639.17,40.06 -611.43,15.6 -1219.18,32.7 -1822.81,51.65 -603.75,19.27 -1136.89,40.39 -1599.23,63.02 -462.66,23.06 -777.95,46.01 -945.78,68.97 0,-229.22 0,-538.78 0,-928.68 0,-389.9 3.79,-779.47 11.15,-1169.48 7.8,-389.57 19.38,-695.34 34.54,-917.09 122.14,-30.42 271.23,-60.96 447.07,-91.71 175.84,-30.42 359.15,-59.01 550.25,-85.75 191.11,-26.64 370.63,-51.54 539.11,-74.6 167.82,-22.96 301.65,-38.22 401.05,-45.91 0,-190.78 3.79,-473.81 11.47,-848.23 7.47,-374.41 18.95,-804.37 34.54,-1289.66 15.27,-485.4 30.43,-991.8 45.7,-1519.32 15.15,-527.3 32.59,-1035.22 51.53,-1524.62 18.95,-488.97 38.23,-930.52 57.5,-1324.21 18.95,-393.25 36.05,-693.5 51.54,-899.76 -84.13,68.64 -191,171.83 -320.93,309.45 -130.15,137.62 -260.08,282.81 -389.9,435.59 -129.93,152.88 -250.44,292.45 -360.99,418.48 -110.98,126.25 -185.47,219.69 -223.69,280.87 -252.07,-282.71 -550.26,-691.56 -894.25,-1226.54 -343.88,-535.1 -630.38,-1031.86 -859.7,-1490.41 114.66,-129.93 303.93,-322.88 567.36,-578.84 263.76,-256.07 559.89,-544.73 888.61,-865.66 328.4,-320.93 659.29,-636.22 991.69,-945.67 332.52,-309.78 624.86,-575.16 876.82,-797.02 229.32,0 521.67,7.8 877.13,23.07 355.36,15.48 708.66,34.43 1060.34,57.17 351.46,22.95 634.49,53.7 848.55,91.92 22.96,152.89 45.7,414.48 68.65,785.1 22.95,370.95 43.85,844.88 63.02,1421.77 19.05,576.99 36.38,1241.8 51.64,1994.64 15.16,752.84 22.96,1580.27 22.96,2481.88 0,749.37 -11.48,1534.58 -34.43,2355.96 -23.07,821.81 -61.29,1656.72 -114.67,2504.94z"/>
</g>
</g>
<path class="fil2" d="M43775.86 29635.16c-1420.24,66.38 -2869.51,63.24 -4343.56,0l0 -2208.16c1480.22,-139.67 2928.08,-186.23 4343.56,-139.67l0 2347.83z"/>
<path class="fil2" d="M24800.01 27561.15c1420.35,-66.37 2869.5,-63.23 4343.56,0l0 2208.28c-1480.23,139.56 -2928.08,186.12 -4343.56,139.56l0 -2347.84z"/>
</g>
</g>
</g>
</svg>