<?xml version="1.0" ?><!-- Uploaded to: SVG Repo, www.svgrepo.com, Generator: SVG Repo Mixer Tools -->
<svg width="800px" height="800px" viewBox="0 0 64 64" data-name="Layer 1" id="Layer_1" xmlns="http://www.w3.org/2000/svg"><defs><style>
      .cls-1 {
        fill: #ffbc0a;
      }

      .cls-2 {
        fill: #a3cef1;
      }

      .cls-3 {
        fill: #606c38;
      }

      .cls-4 {
        fill: #6096ba;
      }

      .cls-5 {
        fill: #274c77;
      }
    </style></defs><path class="cls-5" d="M32,61h-3l-2-2H10V29h4v24s12.15-3,18,8Z"/><path class="cls-5" d="M50,53V29h4v30h-17s-2,2-2,2h-3c5.85-11,18-8,18-8Z"/><path class="cls-4" d="M32,61c-5.85-11-18-8-18-8V26l6-2v25c6.63,0,12,5.37,12,12Z"/><path class="cls-4" d="M44,24l6,2v27s-12.15-3-18,8c0-6.63,5.37-12,12-12V24Z"/><path class="cls-2" d="M32,35c0-6.63-5.37-12-12-12v26c6.63,0,12,5.37,12,12,0-6.63,5.37-12,12-12V23c-6.63,0-12,5.37-12,12Z"/><circle class="cls-5" cx="32" cy="19" r="15"/><circle class="cls-2" cx="32" cy="19" r="11"/><rect class="cls-1" height="6" width="2" x="31" y="11"/><rect class="cls-1" height="3.66" transform="translate(-5.18 30.9) rotate(-45)" width="2" x="33.71" y="19.87"/><rect class="cls-1" height="2" width="2" x="31" y="4"/><rect class="cls-1" height="2" transform="translate(-.09 13.42) rotate(-30.01)" width="2" x="24" y="5.88"/><rect class="cls-1" height="2" transform="translate(-.46 23.21) rotate(-59.99)" width="2" x="18.88" y="11"/><rect class="cls-1" height="2" width="2" x="17" y="18"/><rect class="cls-1" height="2" transform="translate(-10.34 13.42) rotate(-29.99)" width="2" x="18.88" y="25"/><rect class="cls-1" height="2" transform="translate(-14.45 37.22) rotate(-60.01)" width="2" x="24" y="30.12"/><rect class="cls-1" height="2" width="2" x="31" y="32"/><rect class="cls-1" height="2" transform="translate(-10.34 23.68) rotate(-30.01)" width="2" x="38" y="30.12"/><rect class="cls-1" height="2" transform="translate(-.46 51.21) rotate(-59.99)" width="2" x="43.12" y="25"/><rect class="cls-1" height="2" width="2" x="45" y="18"/><rect class="cls-1" height="2" transform="translate(-.09 23.67) rotate(-29.99)" width="2" x="43.12" y="11"/><rect class="cls-1" height="2" transform="translate(13.55 37.22) rotate(-60.01)" width="2" x="38" y="5.88"/><circle class="cls-1" cx="32" cy="19" r="2"/><path class="cls-4" d="M32,22c-1.65,0-3-1.35-3-3s1.35-3,3-3,3,1.35,3,3-1.35,3-3,3Zm0-4c-.55,0-1,.45-1,1s.45,1,1,1,1-.45,1-1-.45-1-1-1Z"/><path class="cls-3" d="M32,35c-8.82,0-16-7.18-16-16S23.18,3,32,3s16,7.18,16,16-7.18,16-16,16Zm0-30c-7.72,0-14,6.28-14,14s6.28,14,14,14,14-6.28,14-14-6.28-14-14-14Z"/></svg>