<?xml version="1.0" encoding="utf-8"?>
<!-- Uploaded to: SVG Repo, www.svgrepo.com, Generator: SVG Repo Mixer Tools -->
<svg xmlns="http://www.w3.org/2000/svg" xmlns:xlink="http://www.w3.org/1999/xlink" version="1.1" id="pcnetwork"  viewBox="0 0 232 200" enable-background="new 0 0 232 200" xml:space="preserve" width="512" height="512">
<g>
	<rect x="8" y="132" fill="#5CB0FF" width="80" height="48"/>
	<rect x="76" y="8" fill="#5CB0FF" width="80" height="48"/>
	<rect x="144" y="132" fill="#D0E8FF" width="80" height="48"/>
	<path fill="#1C71DA" d="M136,124v64h96v-64H136z M224,180h-80v-48h80V180z"/>
	<rect x="168" y="192" fill="#1C71DA" width="32" height="8"/>
	<path fill="#1C71DA" d="M0,188h96v-64H0V188z M8,132h80v48H8V132z"/>
	<rect x="32" y="192" fill="#1C71DA" width="32" height="8"/>
	<path fill="#1C71DA" d="M164,0H68v64h96V0z M156,56H76V8h80V56z"/>
	<rect x="100" y="68" fill="#1C71DA" width="32" height="8"/>
	<polygon fill="#1C71DA" points="52,108 180,108 180,120 188,120 188,108 188,106 188,100 120,100 120,80 112,80 112,100 44,100    44,106 44,108 44,120 52,120  "/>
</g>
<path fill="#FF5D5D" d="M24.252,35.8237c-1.0234,0-2.0469-0.3906-2.8281-1.1714c-1.5625-1.5625-1.5625-4.0952,0-5.6572  L35.5664,14.853c1.5605-1.5615,4.0938-1.5615,5.6562,0c1.5625,1.5625,1.5625,4.0952,0,5.6572L27.0801,34.6523  C26.2998,35.4331,25.2754,35.8237,24.252,35.8237z"/>
<path fill="#FF5D5D" d="M38.3945,35.8223c-1.0234,0-2.0479-0.3906-2.8281-1.1714L21.4238,20.5083  c-1.5625-1.5625-1.5625-4.0947,0-5.6572c1.5605-1.5615,4.0957-1.5615,5.6562,0l14.1426,14.1426  c1.5625,1.5625,1.5625,4.0947,0,5.6572C40.4424,35.4316,39.418,35.8223,38.3945,35.8223z"/>
<path fill="#00D40B" d="M194.252,55.8237c-7.7197,0-14-6.2803-14-14s6.2803-14,14-14s14,6.2803,14,14  S201.9717,55.8237,194.252,55.8237z M194.252,35.8237c-3.3086,0-6,2.6914-6,6s2.6914,6,6,6s6-2.6914,6-6  S197.5605,35.8237,194.252,35.8237z"/>
<path fill="#FFC504" d="M195.5664,174.4492c-1.0234,0-2.0469-0.3906-2.8281-1.1714l-11.3145-11.3135  c-0.75-0.75-1.1719-1.7676-1.1719-2.8286s0.4219-2.0786,1.1719-2.8286l11.3145-11.3135c1.5625-1.5615,4.0938-1.5615,5.6562,0  l11.3135,11.3135c1.5625,1.5625,1.5625,4.0947,0,5.6572l-11.3135,11.3135C197.6143,174.0586,196.5898,174.4492,195.5664,174.4492z   M189.9092,159.1357l5.6572,5.6567l5.6562-5.6567l-5.6562-5.6567L189.9092,159.1357z"/>
</svg>