<?xml version="1.0" encoding="iso-8859-1"?>
<!-- Uploaded to: SVG Repo, www.svgrepo.com, Generator: SVG Repo Mixer Tools -->
<svg height="800px" width="800px" version="1.1" id="Layer_1" xmlns="http://www.w3.org/2000/svg" xmlns:xlink="http://www.w3.org/1999/xlink" 
	 viewBox="0 0 512 512" xml:space="preserve">
<g>
	<circle style="fill:#006775;" cx="256" cy="256" r="256"/>
	<circle style="fill:#006775;" cx="256" cy="256" r="254.018"/>
</g>
<path style="fill:#004F59;" d="M509.857,262.758L396.775,149.676l-27.034,19.122l-70.717-70.717
	c-75.498-48.794-99.235,17.639-108.136,41.211l91.488,91.488L123.467,343.202l164.843,164.843
	c122.972-15.496,218.416-118.851,221.713-245.121L509.857,262.758z"/>
<path style="fill:#EBECEC;" d="M253.033,77.97c-34.287,0-62.145,27.529-62.145,61.321h13.517c0-28.518,21.759-51.761,48.629-51.761
	s48.629,23.078,48.629,51.761h13.517C315.178,105.499,287.32,77.97,253.033,77.97z"/>
<path style="fill:#FBBE00;" d="M116.049,149.841c-8.078,9.066-8.078,58.849-5.935,105.829h132.698v-20.935h35.936v20.935h123.467
	c1.814-46.651,1.814-95.938-5.275-105.829C382.764,130.061,132.204,131.709,116.049,149.841z"/>
<path style="fill:#00CC96;" d="M110.114,255.671c1.319,34.782,8.901,82.916,13.353,87.696c2.472,0.66,19.782,1.483,49.452,1.978
	c17.144,0.329,38.244,0.494,62.97,0.494c22.748,0,44.343-0.165,63.959-0.494c51.266-0.824,88.356-2.637,95.114-4.946
	c1.319-2.143,2.637-7.912,3.792-15.825c2.143-15.001,2.967-47.474,3.792-68.905H110.445h-0.33V255.671z"/>
<path style="fill:#E7A20B;" d="M198.47,255.671h19.286c0.165-0.989,0.165-1.978,0.329-2.803
	c4.121-24.891,27.694-41.705,52.584-37.419c0.329,0,0.824,0.165,1.154,0.165l0,0l0,0l0,0l0,0l0,0l0,0l0,0l1.154,0.165l0,0l0,0l0,0
	c0.329,0.165,0.824,0.165,1.154,0.329l0,0c0.329,0,0.66,0.165,1.154,0.329l0,0c0.329,0.165,0.66,0.165,1.154,0.329l0,0
	c0.329,0.165,0.66,0.165,1.154,0.329l0,0c0.329,0.165,0.66,0.165,0.989,0.329l0,0c0.329,0.165,0.66,0.165,0.989,0.329h0.165
	c0.329,0.165,0.66,0.329,0.989,0.329l0,0c0.329,0.165,0.66,0.329,0.989,0.494l0,0c0.329,0.165,0.66,0.329,0.989,0.494h0.165
	c0.329,0.165,0.66,0.329,0.824,0.494h0.165c0.329,0.165,0.494,0.329,0.824,0.494h0.165c0.329,0.165,0.494,0.329,0.824,0.494l0,0l0,0
	c0.329,0.165,0.494,0.329,0.824,0.494l0,0l0,0l0,0c0.329,0.165,0.494,0.329,0.824,0.494l0.165,0.165
	c0.165,0.165,0.494,0.329,0.66,0.494l0.165,0.165c0.165,0.165,0.494,0.329,0.66,0.494l0.165,0.165
	c0.165,0.165,0.494,0.329,0.66,0.494l0.165,0.165c0.165,0.165,0.494,0.329,0.66,0.494l0.165,0.165
	c0.165,0.165,0.494,0.329,0.66,0.494l0,0l0,0l0,0c7.747,6.264,13.187,15.001,15.496,24.726v0.165c0,0.329,0.165,0.494,0.165,0.824
	v0.165v0.165l0.165,0.66v0.329v0.165l0.165,0.66v0.329v0.165v0.329v0.165v0.165v0.494v0.165v0.165v0.329v0.66l0,0l0,0h19.286
	c-2.143-29.177-23.902-54.233-53.904-59.178c-35.276-5.935-68.739,17.968-74.509,53.244c-0.329,1.978-0.66,3.957-0.66,6.099
	L198.47,255.671z"/>
<path style="fill:#12B589;" d="M217.757,265.232h-19.286c1.319,17.308,9.561,33.133,22.254,44.177h69.728l20.111,35.606
	c7.747-0.165,15.165-0.329,22.254-0.494c-4.615-8.572-8.407-16.154-9.726-18.627c-3.297-6.593-10.385-3.792-10.385-3.792
	l-7.418-12.858c11.044-9.561,18.957-22.913,21.594-38.408c0.329-1.978,0.494-3.792,0.66-5.769h-19.286
	c-0.165,0.824-0.165,1.649-0.329,2.472c-1.154,6.758-3.626,12.858-7.253,18.133c-0.494,0.66-0.989,1.319-1.319,1.978l0,0
	c-0.66,0.824-1.319,1.649-1.978,2.472l0,0c-1.154,1.319-2.472,2.637-3.957,3.957l0,0c-0.824,0.66-1.483,1.319-2.308,1.978
	l-0.165,0.165l-0.494,0.329h-0.165c-0.329,0.329-0.824,0.494-1.154,0.824h-0.165l-0.494,0.329l-0.165,0.165l-0.494,0.329
	c-0.165,0.165-0.494,0.329-0.66,0.494l-0.66,0.329l-0.165,0.165l-0.66,0.329l-0.165,0.165c-0.329,0.165-0.66,0.329-0.989,0.494
	l-0.329,0.165l-0.494,0.329l-0.165,0.165l-0.494,0.329l-0.165,0.165c-0.329,0.165-0.66,0.329-0.989,0.494l-0.329,0.165l-0.494,0.165
	l-0.329,0.165l-0.494,0.165c-0.329,0.165-0.494,0.165-0.824,0.329l0,0l-0.494,0.165l-0.494,0.165l-0.494,0.165l-0.494,0.165
	l-0.494,0.165c-0.165,0-0.494,0.165-0.66,0.165l-0.494,0.165l-0.494,0.165l-0.329,0.165c-0.165,0-0.494,0.165-0.66,0.165
	l-0.494,0.165l-0.494,0.165l-0.494,0.165l-0.494,0.165l-0.494,0.165c-0.329,0-0.66,0.165-0.824,0.165h-0.329l-0.66,0.165h-0.329
	c-0.329,0-0.494,0-0.824,0.165h-0.165c-0.329,0-0.66,0-0.989,0.165h-0.165c-0.329,0-0.494,0-0.824,0h-0.329c-0.329,0-0.66,0-0.989,0
	l0,0l0,0c-0.329,0-0.66,0-0.989,0h-0.329h-0.824h-0.165c-0.329,0-0.66,0-0.989,0h-0.165h-0.824h-0.329c-0.329,0-0.494,0-0.824,0
	h-0.165c-0.329,0-0.66,0-0.989-0.165h-0.165c-0.329,0-0.66,0-0.824-0.165h-0.165c-0.329,0-0.66-0.165-1.154-0.165
	c-20.605-3.461-35.771-20.276-37.914-40.057L217.757,265.232z"/>
<circle style="fill:#FFFFFF;" cx="259.293" cy="257.982" r="45.662"/>
<path style="fill:#004F59;" d="M269.187,213.471L269.187,213.471l-1.154-0.165l0,0l0,0l0,0l0,0l0,0l0,0l0,0
	c-0.329,0-0.824-0.165-1.154-0.165c-24.891-4.121-48.299,12.693-52.584,37.419c-4.121,24.891,12.693,48.299,37.419,52.584
	c0.329,0,0.66,0.165,1.154,0.165h0.165c0.329,0,0.66,0,0.824,0.165h0.165c0.329,0,0.66,0,0.989,0.165h0.165c0.329,0,0.494,0,0.824,0
	h0.329h0.824h0.165c0.329,0,0.66,0,0.989,0h0.165h0.824h0.329c0.329,0,0.66,0,0.989,0l0,0l0,0c0.329,0,0.66,0,0.989,0h0.329
	c0.329,0,0.494,0,0.824,0h0.165c0.329,0,0.66,0,0.989-0.165h0.165c0.329,0,0.494,0,0.824-0.165h0.329l0.66-0.165h0.329
	c0.329,0,0.66-0.165,0.824-0.165l0.494-0.165l0.494-0.165l0.494-0.165l0.494-0.165l0.494-0.165c0.165,0,0.494-0.165,0.66-0.165
	l0.329-0.165l0.494-0.165l0.494-0.165c0.165,0,0.494-0.165,0.66-0.165l0.494-0.165l0.494-0.165l0.494-0.165l0.494-0.165l0.494-0.165
	l0,0c0.329-0.165,0.494-0.165,0.824-0.329l0.494-0.165l0.329-0.165l0.494-0.165l0.329-0.165c0.329-0.165,0.66-0.329,0.989-0.494
	l0.165-0.165l0.494-0.329l0.329-0.165l0.494-0.329l0.165-0.165c0.329-0.165,0.66-0.329,0.989-0.494l0.165-0.165l0.66-0.329
	l0.165-0.165l0.66-0.329c0.165-0.165,0.494-0.329,0.66-0.494l0.494-0.329l0.165-0.165l0.494-0.329h0.165
	c0.329-0.329,0.824-0.494,1.154-0.824h0.165l0.494-0.329l0.165-0.165c0.824-0.66,1.649-1.319,2.308-1.978l0,0
	c1.319-1.154,2.637-2.472,3.957-3.956l0,0c0.66-0.824,1.319-1.649,1.978-2.472l0,0c0.494-0.66,0.989-1.319,1.318-1.978
	c3.626-5.275,6.099-11.374,7.253-18.133c0.494-3.297,0.66-6.594,0.494-9.89l0,0c0-0.329,0-0.66,0-0.824v-0.165v-0.165v-0.165v-0.66
	v-0.165v-0.165v-0.165l0,0v-0.66v-0.329v-0.165v-0.165v-0.494v-0.165v-0.165v-0.329v-0.165v-0.329l-0.165-0.66v-0.165v-0.329
	l-0.165-0.66v-0.165v-0.165c0-0.329-0.165-0.494-0.165-0.824v-0.165c-2.308-9.726-7.912-18.462-15.496-24.726l0,0l0,0l0,0
	c-0.165-0.165-0.494-0.329-0.66-0.494l-0.165-0.165c-0.165-0.165-0.494-0.329-0.66-0.494l-0.165-0.165
	c-0.165-0.165-0.494-0.329-0.66-0.494l-0.165-0.165c-0.165-0.165-0.494-0.329-0.66-0.494l-0.165-0.165
	c-0.165-0.165-0.494-0.329-0.66-0.494l-0.165-0.165c-0.329-0.165-0.494-0.329-0.824-0.494l0,0l0,0h-0.165
	c-0.329-0.165-0.494-0.329-0.824-0.494l0,0l0,0c-0.329-0.165-0.494-0.329-0.824-0.494h-0.165c-0.329-0.165-0.494-0.329-0.824-0.494
	h-0.165c-0.329-0.165-0.66-0.329-0.824-0.494h-0.165c-0.329-0.165-0.66-0.329-0.989-0.494l0,0c-0.329-0.165-0.66-0.329-0.989-0.494
	l0,0c-0.329-0.165-0.66-0.329-0.989-0.329h-0.165c-0.329-0.165-0.66-0.165-0.989-0.329l0,0c-0.329-0.165-0.66-0.165-0.989-0.329l0,0
	c-0.329-0.165-0.66-0.165-1.154-0.329l0,0c-0.329-0.165-0.66-0.165-1.154-0.329l0,0c-0.329-0.165-0.66-0.165-1.154-0.329l0,0
	c-0.329-0.165-0.66-0.165-1.154-0.329l0,0l0,0L269.187,213.471z M229.46,249.901L229.46,249.901
	c-0.329,1.814-1.814,2.967-3.626,2.637c-1.483-0.165-2.472-1.483-2.637-2.967h-0.165c0-0.66,0.165-1.154,0.329-1.814
	c3.297-19.782,22.089-33.133,41.87-29.836c0.494,0.165,1.154,0.165,1.649,0.329c0.165,0,0.165,0,0.329,0
	c1.814,0.329,2.967,1.978,2.637,3.626c-0.329,1.649-1.978,2.803-3.792,2.637h-0.165l0,0c-0.66-0.165-1.319-0.329-1.814-0.329
	c-16.319-2.803-31.815,8.242-34.452,24.561c0,0.329-0.165,0.66-0.165,0.989h-0.165L229.46,249.901z M299.848,308.585l8.078,13.682
	l2.308-1.319c2.472-1.483,5.769-0.66,7.253,1.978l52.42,90.993c1.483,2.472,0.66,5.769-1.978,7.253l-20.935,12.198
	c-2.472,1.483-5.769,0.66-7.253-1.978l-52.42-90.993c-1.483-2.472-0.66-5.769,1.978-7.253l2.143-1.319l-8.078-13.682
	c-10.715,4.286-22.583,5.769-34.616,3.626c-35.276-5.935-59.178-39.233-53.244-74.674c5.935-35.276,39.233-59.178,74.674-53.244
	c35.276,5.935,59.178,39.233,53.244,74.674c-2.803,16.319-11.374,30.331-23.408,39.891L299.848,308.585z"/>
<path style="fill:#FBBE00;" d="M310.398,320.783l-19.122,11.21l-2.143,1.318c-2.472,1.483-3.297,4.615-1.978,7.253l52.42,90.993
	c1.483,2.472,4.78,3.297,7.253,1.978l20.935-12.198c2.472-1.483,3.297-4.615,1.978-7.253l-52.42-90.993
	c-1.319-2.308-4.286-3.297-6.758-2.143L310.398,320.783z"/>
<path style="fill:#E7A20B;" d="M307.761,322.431l2.308-1.319c2.472-1.483,5.769-0.66,7.253,1.978l52.42,90.993
	c1.483,2.472,0.66,5.769-1.978,7.253l-10.385,6.099L300.344,326.88l7.583-4.451h-0.166V322.431z"/>
<path style="fill:#E6E6E6;" d="M134.841,244.956h31.155v27.034c0,2.472-2.143,4.615-4.615,4.615h-21.759
	c-2.472,0-4.615-2.143-4.615-4.615v-27.034L134.841,244.956L134.841,244.956z"/>
<circle style="fill:#B3B3B3;" cx="150.501" cy="265.889" r="6.923"/>
<path style="fill:#E6E6E6;" d="M346.004,244.956h31.155v27.034c0,2.472-2.143,4.615-4.615,4.615h-21.759
	c-2.472,0-4.615-2.143-4.615-4.615v-27.034L346.004,244.956L346.004,244.956z"/>
<circle style="fill:#B3B3B3;" cx="361.659" cy="265.889" r="6.923"/>
</svg>